<svg xmlns="http://www.w3.org/2000/svg" xmlns:xlink="http://www.w3.org/1999/xlink" aria-hidden="true" role="img" class="iconify iconify--logos" width="31.88" height="32" preserveAspectRatio="xMidYMid meet" viewBox="0 0 256 257">
    <path transform="translate(0)" d="m0 0h1028v1024h-1028z" fill="none"/>
    <path transform="translate(441,75)" d="m0 0h58l248 1 16 4 16 8 10 9 8 9 8 15 4 11 1 6v70l-58 1h-43l-43-1-1-2 1-66 4-17 7-14 5-7h2l2-4 12-10 11-7-9 3-15 8-14 11-9 9-10 15-6 15-2 17-1 63-1 101-1 313-12 10-14 10-19 14-5 4-5-2-10-8-16-12-19-14-13-8-6 1-11 7-19 14-18 14-11 8h-3v-2l-4-2-18-14-13-10-11-8-7-5-7-3-5 1-11 7-21 16-18 13-9 6-5-1-10-8-19-14-16-12-2-2v-480l2-15 5-15 8-14 9-11 7-7 10-7 16-7 18-4z" fill="#1A6FC5"/>
    <path transform="translate(401,160)" d="m0 0h6l8 7 2 5 1 43 23 10 11 8 8 8 7 12 1 3v9l-6 7-5 2-7-1-5-5-8-11-9-8-10-4-9-2h-8l-10 3-9 6-5 6-4 10v15l4 10 7 10 7 5 6 2 17 1 15 3 9 4 10 6 10 9 7 11 5 11 2 8v13l-3 13-7 14-8 10-7 7-12 7-18 6v44l-3 6-5 4-5 1-7-2-5-5-1-4v-48l-12-3-14-9-7-7-8-14-3-9 1-7 8-7 7-1 6 3 14 20 6 5 7 3 5 1h14l11-4 6-4 5-5 5-8 1-3v-16l-4-10-5-5-6-5-11-5-5-1-20-1-12-4-9-5-10-9-9-13-6-15-2-10v-13l3-13 7-13 9-11 10-7 18-9v-46l5-6z" fill="#FDFDFD"/>
    <path transform="translate(474,732)" d="m0 0h6l1 2-1 8-1 35 4-4 10-14 7-9 8-9 9-6 6-3h9l3 2v4l16-5 5-1h21l10 3 8 5 7 8 2 5v13l-4 11-9 10-7 6-12 6-11 4-15 2-11 22-9 12-7 7-5 2-10-1-3 1h-9l-11-7-5-8-5-12-2-6-4 2-7 9-11 12-11 8-2 1h-11l-2-1 1-4 14-11 11-11 11-14 6-9-1-10-2-17v-28l4-5z" fill="#1A6FC5"/>
    <path transform="translate(155,732)" d="m0 0h8l5 3-1 8-7 19-8 28-5 27v7l10-19 14-29 10-17 10-14 9-8 10-5h8l5 4-3 11-12 36-8 31-1 7v12l2 2h7l7-1 1 4-7 7-6 3h-8l-8-4-4-6-1-3v-17l4-19 11-33 7-17 1-3-5 4-12 20-10 19-9 17-8 16-8 14-7 9-5 3-5-2-4-5-1-4v-21l3-23 6-23 10-26-5 3-10 14-13 24-12 22-11 21-9 12-7 6-3 1h-10l-3-2 1-4 8-4 8-9 9-15 10-18 12-22 11-17 7-9 9-9 10-5z" fill="#1A6FC5"/>
    <path transform="translate(255,732)" d="m0 0h10l5 4 1 2v8l-6 17-15 35-8 21-1 5v9l2 2h6l8-7 7-9 8-13 8-14 15-29 14-28 3-3 8 1 4 3-1 5-7 16-9 25-12 35-9 21-10 17-9 12-9 10-11 7-7 3h-12l1-4 13-8 10-9 10-14 10-17 8-17 1-6-7 9-8 10-10 10-8 5-5 2h-9l-8-6-3-7v-8l4-15 12-29 10-24 5-15-4-2-3-3 2-4z" fill="#1A6FC5"/>
    <path transform="translate(771,731)" d="m0 0 6 2 5 5 4 7v9l-4 14-8 18-12 23-8 16-5 12-1 9-1 1h-7l-8-7-5-8-7-21-4-21-1-11v-24l-6 9-9 23-10 35-5 25h-7l-5-4v-14l7-26 9-24 11-23 8-12 8-8 7-4h10l1 1v9l-2 15 1 21 5 30 3 15 3-3 9-20 10-24 4-18v-8l-2-5-4-4 1-5 5-4z" fill="#1A6FC5"/>
    <path transform="translate(566,740)" d="m0 0h7l9 3 5 5 1 3v12l-5 10-9 10-10 7-12 4-3-1 9-26 3-10-4-4h-7l-5 6-8 20-14 39-7 13-6 4-3 1h-7l-5-5-5-8-8-23v-5l7-10 12-16 11-13 11-11 5-1v6l4 4 7-1 9-6 14-6z" fill="#FDFDFD"/>
    <path transform="translate(410,732)" d="m0 0h15l8 3 5 5 3 5v8l-4 10-9 10-7 4-8-1-5-4 1-5 9-7 9-8 1-2v-8l-10-1-12 5-10 9-5 7-3 7-1 5v9l3 5 5 1 8-1 5 3 3 4v3l-12 4-11 7-8 9-3 7v7l4 6 8 1 12-6 12-11 5 1 1 7-4 6-7 6-12 5-4 1h-14l-9-4-6-5-4-9v-7l4-11 6-8 10-7-2-4-6-8-1-3v-11l3-10 6-10 10-10 16-8z" fill="#1A6FC5"/>
    <path transform="translate(650,732)" d="m0 0h16l7 3 5 4 4 8-1 10-7 11-7 6-6 3-7-1-6-5 2-4 14-11 5-6v-6l-4-3h-7l-9 4-9 6-8 11-4 10v12l2 4 6 1 8-1 5 3 3 4v3l-12 4-10 6-5 5-6 8-1 2v9l3 5 3 2 9-1 11-7 7-7 3-2 5 1v8l-4 6-9 6-10 4-4 1h-13l-9-4-6-5-4-8v-9l4-10 4-6 8-7 4-1-2-5-4-4-3-6v-13l4-11 6-9 5-6 12-8z" fill="#1A6FC5"/>
    <path transform="translate(902,732)" d="m0 0h15l8 3 7 8 1 2v10l-4 8-9 10-8 4-6-1-5-4 1-5 16-13 3-4 1-5-4-4h-9l-12 6-6 5-7 10-4 10v12l2 4 6 1 8-1 5 3 3 4v3l-12 4-10 6-5 5-6 8-1 2v9l3 5 3 2h7l13-8 11-10 4 1v8l-4 6-7 6-9 4-8 2h-12l-8-3-6-5-5-9v-9l4-10 6-8 8-6h2l-2-5-5-6-2-4v-13l5-13 7-9 7-7 8-5z" fill="#1A6FC5"/>
    <path transform="translate(824,732)" d="m0 0h15l8 4 7 8 4 10v9l-4 11-4 6-8 6-2 1h-6l-5-4-2-5 9-8 6-9 1-3v-10l-3-5-3-2h-9l-8 5-6 7-3 8v16l8 16 8 13 4 11v7l-4 9-6 7-10 6-6 2h-10l-8-4-7-8-1-3v-7l3-6 6-4h6l1 5-1 2 1 9 3 5 3 2h6l6-4 2-3v-9l-5-10-10-13-7-14-1-5v-10l3-12 6-11 9-9z" fill="#1A6FC5"/>
  </svg>