<?xml version="1.0" standalone="no"?>
<!DOCTYPE svg PUBLIC "-//W3C//DTD SVG 20010904//EN"
 "http://www.w3.org/TR/2001/REC-SVG-20010904/DTD/svg10.dtd">
<svg version="1.0" xmlns="http://www.w3.org/2000/svg"
 width="500.000000pt" height="500.000000pt" viewBox="0 0 500.000000 500.000000"
 preserveAspectRatio="xMidYMid meet">

<g transform="translate(0.000000,500.000000) scale(0.100000,-0.100000)"
fill="#000000" stroke="none">
<path d="M2245 3680 c-11 -4 -25 -5 -31 -3 -7 2 -15 -1 -19 -6 -3 -6 -11 -9
-16 -6 -5 4 -9 1 -9 -4 0 -6 5 -11 12 -11 6 0 9 -2 6 -5 -8 -9 -38 6 -32 16 3
5 0 9 -5 9 -6 0 -11 -5 -11 -11 0 -6 -6 -9 -12 -6 -37 12 -336 -111 -323 -133
3 -5 0 -7 -8 -4 -29 11 -209 -141 -314 -266 -273 -324 -343 -806 -176 -1210
19 -47 40 -91 45 -98 6 -7 8 -15 5 -18 -7 -8 -141 15 -190 32 -57 20 -34 -4
32 -33 72 -32 201 -60 316 -68 81 -6 304 7 364 22 l24 6 -8 726 c-8 771 -8
792 4 804 4 4 20 -6 36 -23 28 -29 58 -43 36 -17 -14 18 -3 29 14 14 6 -6 10
-19 8 -27 -3 -9 2 -21 9 -28 14 -11 15 -7 22 64 1 11 9 33 19 47 9 14 17 31
17 36 0 15 68 81 85 81 8 0 15 4 15 9 0 5 9 12 20 16 11 3 19 11 17 17 -1 6 8
17 20 23 16 8 19 15 12 22 -8 8 -7 13 2 19 7 4 14 3 17 -4 2 -7 17 -12 33 -12
20 0 28 4 23 11 -5 9 7 10 44 5 41 -5 51 -4 46 7 -5 15 -113 20 -149 7z m-32
-25 c-3 -9 -8 -14 -10 -11 -3 3 -2 9 2 15 9 16 15 13 8 -4z"/>
<path d="M2438 3683 c7 -3 16 -2 19 1 4 3 -2 6 -13 5 -11 0 -14 -3 -6 -6z"/>
<path d="M2499 3677 c6 -8 8 -17 4 -20 -3 -4 -2 -7 4 -7 13 0 24 25 16 34 -4
3 -13 6 -21 6 -11 0 -12 -3 -3 -13z"/>
<path d="M2543 3675 c-7 -19 -5 -21 27 -29 19 -6 21 -5 10 3 -13 10 -13 11 0
11 8 0 21 -9 28 -20 7 -11 18 -20 25 -20 7 1 5 6 -6 14 -14 11 -15 15 -4 19 8
3 20 0 26 -6 9 -9 14 -8 22 3 9 12 10 10 6 -8 -3 -12 -2 -20 1 -18 4 2 13 -2
20 -10 7 -8 8 -14 2 -14 -17 0 -11 -20 8 -27 15 -6 118 -103 108 -103 -11 0
25 -76 40 -85 32 -18 67 -45 57 -45 -5 0 -14 5 -21 12 -9 9 -12 9 -12 0 0 -7
4 -12 8 -12 5 0 23 -15 42 -32 18 -18 30 -26 26 -18 -4 9 -2 8 7 -2 16 -20 32
-25 21 -6 -4 7 -3 8 4 4 6 -4 9 -13 6 -21 -3 -8 4 -19 18 -26 12 -7 31 -23 41
-36 11 -13 21 -22 23 -20 3 2 25 -15 49 -38 l45 -41 0 -345 0 -345 -32 -31
c-68 -63 -317 -243 -338 -243 -7 0 -10 138 -11 398 -1 218 -5 408 -9 422 -7
22 -8 22 -11 5 -1 -11 -3 -27 -5 -35 -1 -8 -2 -24 -3 -35 -1 -14 -4 -16 -10
-7 -6 10 -10 10 -19 -1 -8 -10 -13 -129 -14 -407 l-3 -394 -60 -34 c-76 -43
-296 -145 -301 -139 -8 7 -12 188 -14 546 -1 214 -5 349 -11 340 -6 -10 -9 -8
-9 11 0 14 -5 32 -10 40 -8 11 -9 8 -4 -11 3 -15 1 -30 -5 -33 -7 -4 -12 2
-12 16 -1 13 -5 3 -10 -22 -4 -25 -8 -243 -8 -486 l-1 -441 -112 -31 c-250
-70 -297 -77 -504 -77 l-191 0 49 -56 c167 -192 407 -330 670 -385 100 -21
341 -24 438 -5 347 65 641 270 828 579 69 114 140 329 156 476 4 37 18 68 59
130 58 87 159 277 194 366 12 30 17 47 10 36 -152 -235 -349 -456 -597 -671
l-100 -87 0 -234 0 -234 -190 0 -190 0 0 168 c0 193 -11 170 114 247 68 41
333 246 415 320 15 13 78 68 141 124 63 56 120 111 126 124 10 18 7 43 -16
134 -74 292 -262 551 -520 713 -30 19 -61 34 -68 32 -8 -2 -11 1 -8 6 8 13
-49 36 -65 26 -7 -4 -10 -3 -6 3 6 9 -37 34 -65 39 -5 1 -10 3 -13 4 -3 1 -8
3 -12 5 -5 1 -16 5 -25 9 -10 5 -25 6 -33 2 -8 -3 -19 3 -25 12 -8 12 -13 13
-16 5 -4 -10 -9 -9 -20 1 -8 8 -23 13 -34 11 -11 -2 -22 0 -25 6 -4 5 -11 9
-16 9 -6 0 -7 -4 -4 -10 3 -5 1 -10 -4 -10 -6 0 -11 4 -11 10 0 6 -9 6 -26 -1
-24 -8 -25 -8 -14 6 9 11 9 15 1 15 -6 0 -14 -7 -18 -15z m377 -295 c0 -5 -2
-10 -4 -10 -3 0 -8 5 -11 10 -3 6 -1 10 4 10 6 0 11 -4 11 -10z m-200 -1549
c0 -89 -4 -151 -10 -153 -5 -1 -88 -2 -184 0 l-174 3 -4 61 -3 61 80 36 c44
19 125 58 180 87 55 28 103 52 108 52 4 1 7 -65 7 -147z m-450 -106 l0 -45
-75 -1 c-99 -1 -110 -1 -212 1 l-88 1 90 20 c50 10 126 29 170 43 115 34 115
34 115 -19z"/>
<path d="M2328 3653 c7 -3 16 -2 19 1 4 3 -2 6 -13 5 -11 0 -14 -3 -6 -6z"/>
<path d="M2068 3308 c5 -5 16 -8 23 -6 8 3 3 7 -10 11 -17 4 -21 3 -13 -5z"/>
</g>
</svg>
